<?xml version="1.0" encoding="UTF-8"?>
<svg
		xmlns="http://www.w3.org/2000/svg"
		width="490"
		height="65"
		viewBox="0 0 5.1041584 0.6770822"
>
	<defs id="defs43">
		<linearGradient id="id0"
						gradientUnits="userSpaceOnUse"
						x1="0.362059"
						y1="4.3684101"
						x2="5.4374399"
						y2="4.3684101">
			<stop offset="0" style="stop-color:#8702ff"/>
			<stop offset="0.5" style="stop-color:#2c89ff"/>
			<stop offset="1" style="stop-color:#05dbff"/>
		</linearGradient>
	</defs>
	<g transform="translate(-0.34225524,-4.0448379)">
		<g>
			<path class="fil1" style="fill:url(#id0)"
				  d="M 1.9873,4.22896 1.9069457,4.347149 C 1.8813,4.3855584 1.8353473,4.458763 1.8164654,4.496732 l -0.027716,0.053095 c -0.015118,0.029961 -0.059173,0.12085 -0.045575,0.149465 0.011614,0.024425 0.039472,0.024008 0.053197,0.010512 0.044913,-0.044173 0.053157,-0.071283 0.118039,-0.122055 0.00531,-0.00416 0.00522,-0.00396 0.00998,-0.00849 0.00512,-0.00487 0.00639,-0.00508 0.011433,-0.00935 0.00771,-0.00653 0.014709,-0.012669 0.022047,-0.019496 l 0.04363,-0.037173 c 0.013961,-0.011142 0.027307,-0.030291 0.041213,-0.039583 0.036961,0.069858 0.116134,0.053787 0.165669,0.00406 0.032039,-0.03215 0.034961,-0.0022 0.078315,-0.025567 0.010071,-0.00543 0.023756,-0.017575 0.033031,-0.020055 0,0.043772 0.03378,0.086614 0.072177,0.076858 0.01637,-0.00417 0.047551,-0.029583 0.060047,-0.041606 l 0.075551,-0.07911 c -0.00455,0.019504 -0.022362,0.04085 -0.029716,0.060315 -0.031913,0.084504 0.032787,0.085221 0.071772,0.062528 0.027858,-0.016236 0.053142,-0.036126 0.078669,-0.055213 0.012409,-0.00928 0.026441,-0.018299 0.037472,-0.029472 0.00512,-0.0052 0.00647,-0.00646 0.012087,-0.011 0.010291,-0.00831 0.014953,-0.01274 0.024221,-0.021961 0.00852,-0.00847 0.013126,-0.014126 0.020496,-0.023354 0.00594,-0.00745 0.013472,-0.022394 0.020976,-0.025197 0.00752,-0.0028 0.029646,-0.00448 0.040087,-0.00609 0.012339,-0.0019 0.028614,-0.00569 0.040213,-0.00595 -0.00472,0.00705 -0.010598,0.011425 -0.01678,0.017842 -0.00414,0.00431 -0.00369,0.00427 -0.00729,0.00887 -0.0036,0.00461 -0.00524,0.00577 -0.00859,0.00988 -0.00538,0.00657 -0.00942,0.012606 -0.014835,0.019795 -0.023811,0.031677 -0.050598,0.090362 -0.011008,0.122142 0.047126,0.037795 0.135165,-0.060236 0.173929,-0.086197 0.00285,0.012236 0.017165,0.033252 0.024874,0.042071 l 0.015921,0.016402 c 0.064047,0.054409 0.160504,0.062669 0.236583,0.03189 0.023953,-0.00969 0.043228,-0.022441 0.062677,-0.03889 0.00802,-0.00679 0.011787,-0.00791 0.01778,-0.016843 -0.00873,-0.013039 -0.045945,-0.059835 -0.060024,-0.06926 -0.03915,0.058457 -0.151961,0.069165 -0.191496,-0.00705 -0.046095,-0.08885 0.037378,-0.236315 0.151008,-0.215622 0.020614,0.00376 0.05552,0.016465 0.06126,0.038 0.010189,-0.00272 0.030512,-0.02352 0.039803,-0.031764 0.00977,-0.00866 0.027803,-0.029961 0.038693,-0.032866 C 3.3553405,4.129834 3.3421204,4.11992 3.3335844,4.113149 3.3140014,4.09759 3.2900094,4.086653 3.2649074,4.080259 3.1967734,4.06292 3.1181904,4.075269 3.0593644,4.114432 c -0.021323,0.014197 -0.038205,0.030843 -0.054504,0.04937 -0.055008,0.062559 -0.073622,0.157898 -0.05489,0.238291 -0.02489,0.016661 -0.071134,0.050315 -0.103417,0.041197 -0.024221,-0.00684 -0.00541,-0.038094 0.00227,-0.050016 0.01252,-0.019417 0.026929,-0.03563 0.044,-0.050638 0.015284,-0.013457 0.040126,-0.031669 0.035197,-0.054622 -0.010165,-0.047425 -0.03726,-0.035425 -0.11152,-0.026315 -0.00935,0.00115 -0.024709,0.00419 -0.035047,0.00419 0.00583,-0.0087 0.011543,-0.015315 0.011543,-0.03 -0.041575,-0.00969 -0.096921,0.05752 -0.104866,0.08674 -0.00237,0.00869 -0.0025,0.021567 0.00173,0.027913 0.0036,0.0054 0.014118,0.011622 0.022331,0.012307 -0.00217,0.00813 -0.00639,0.00966 -0.012165,0.015543 -0.017803,0.018165 -0.019764,0.02415 -0.044236,0.038858 -0.025961,0.015598 -0.049008,0.034102 -0.08211,0.026386 -0.00628,-0.026953 0.00152,-0.039811 0.023386,-0.068953 0.013354,-0.017787 0.074244,-0.081866 0.07774,-0.102331 0.00424,-0.02485 -0.00498,-0.049079 -0.034291,-0.034291 -0.013638,0.00689 -0.019299,0.012992 -0.030614,0.022496 -0.019795,0.016646 -0.036677,0.030866 -0.054142,0.04974 -0.032535,0.035173 -0.043173,0.044205 -0.082323,0.072354 l -0.06089,0.042992 c -0.016268,0.010984 -0.017945,0.01563 -0.035095,0.00414 0,-0.024142 0.00213,-0.03989 0.022339,-0.051528 0.00925,-0.00532 0.013882,-0.00908 0.021858,-0.015087 0.00735,-0.00551 0.01378,-0.010039 0.020976,-0.015945 0.017646,-0.014496 0.068157,-0.056126 0.068716,-0.081339 -0.015299,-0.00809 -0.045055,-0.013236 -0.067087,-0.00707 -0.028118,0.00787 -0.109657,0.10289 -0.117626,0.12015 -0.013701,0.029709 -6.063e-4,0.021693 -0.038315,0.040173 -0.00638,0.00313 -0.028732,0.0083 -0.029898,-6.535e-4 -3.622e-4,-0.00272 0.010921,-0.01974 0.013882,-0.024598 0.015803,-0.026 0.043528,-0.105433 -0.00565,-0.109528 0.028913,-0.043181 -0.035969,-0.041669 -0.064386,-0.036669 -0.031472,0.00554 -0.060197,0.020937 -0.085677,0.038976 -0.039496,0.027976 -0.11311,0.09926 -0.085417,0.156969 -0.040488,0.00943 -0.143472,0.087575 -0.163906,0.092339 l 0.045394,-0.095417 c 0.019457,-0.038898 0.04115,-0.075567 0.063205,-0.112236 0.014236,-0.023646 0.109898,-0.155882 0.112677,-0.171622 0.0028,-0.01585 -0.03063,-0.057835 -0.053378,-0.043819 -0.028488,0.017575 -0.089535,0.094039 -0.119945,0.12478 l -0.05315,0.055354 c -0.011819,0.011827 -0.023543,0.024976 -0.035795,0.035772 l -0.077378,0.063441 c -0.036968,0.027709 -0.063268,0.01037 -0.044661,-0.019276 0.031906,-0.050874 0.067827,-0.098984 0.098827,-0.15048 0.026559,-0.044118 0.058134,-0.085008 0.081142,-0.131228 0.021858,-0.04389 0.024937,-0.078142 -0.033157,-0.077094 -0.030315,5.59e-4 -0.058276,0.00897 -0.084402,0.019551 -0.033134,0.013402 -0.066095,0.027756 -0.096953,0.046189 -0.00646,0.00386 -0.01752,0.011134 -0.024047,0.012874 0,-0.011102 0.00455,-0.023126 0.00454,-0.030551 -1.58e-5,-0.013102 -0.013535,-0.00879 -0.027622,-0.00869 -0.023842,1.339e-4 -0.047732,0 -0.071583,0 -0.00254,0.030646 -0.032315,0.167709 -0.032315,0.19622 h -0.00461 c -0.00312,-0.011653 -0.01737,-0.022 -0.027189,-0.028228 -0.011087,-0.00703 -0.027016,-0.012181 -0.042953,-0.014756 -0.067693,-0.010961 -0.11926,0.02052 -0.155484,0.069 -0.053638,0.071764 -0.050378,0.197252 0.026705,0.237512 0.054701,0.028567 0.125693,0.016669 0.166591,-0.030386 -2.914e-4,0.013134 -0.00461,0.021835 -0.00461,0.036937 h 0.092339 c 6.299e-4,-0.027969 0.018843,-0.105772 0.023748,-0.135535 0.00736,-0.044669 0.015457,-0.093898 0.024165,-0.137433 0.00517,-0.025819 0.00299,-0.02285 0.022291,-0.035409 0.00512,-0.00332 0.00756,-0.00528 0.012465,-0.00831 0.017165,-0.010669 0.031929,-0.021244 0.048803,-0.031992 l 0.048465,-0.032331 c 0.012417,-0.00739 0.038268,-0.026535 0.060165,-0.016031 0.011354,0.01137 -0.048118,0.089346 -0.057362,0.101929 -0.012024,0.016362 -0.023307,0.031882 -0.034976,0.048134 -0.00344,0.00479 -0.0058,0.00672 -0.00926,0.011504 -0.030496,0.042165 -0.063228,0.095559 -0.087709,0.140835 -0.0078,0.014425 -0.02415,0.038559 -0.025449,0.057874 -0.00167,0.024921 0.018142,0.04211 0.03485,0.04815 0.03178,0.011504 0.061472,-0.020189 0.082402,-0.037299 l 0.04511,-0.038 c 0.00507,-0.00426 0.00639,-0.00444 0.011457,-0.00933 l 0.054213,-0.049661 c 0.027165,-0.027417 0.060071,-0.052173 0.084016,-0.082197 0.01326,-0.016614 0.027575,-0.027079 0.040535,-0.042567 l 0.029701,-0.032638 c 0.0049,-0.00643 0.00369,-0.00617 0.010228,-0.010551 z m 3.44957,0.170504 v 0 -0.00144 H 5.386405 C 5.3858853,4.404264 5.385325,4.404304 5.384095,4.409567 5.294827,4.346276 5.22715,4.551417 5.36563,4.511142 5.36436,4.541284 5.322417,4.542977 5.296378,4.520372 L 5.276102,4.554821 c 0.041953,0.021315 0.075095,0.02274 0.101992,0.010496 0.00457,-0.00208 0.00909,-0.00318 0.012843,-0.00547 C 5.424583,4.539304 5.417992,4.481524 5.436866,4.3994688 Z M 2.18353,4.397484 v 0 c 0,0.017457 -0.001,0.025024 0.00692,0.041543 -0.018055,0.00956 -0.043205,0.027701 -0.066945,0.027701 -0.015236,0 -0.036937,-0.00502 -0.036937,-0.020772 0,-0.013016 0.00914,-0.047126 0.013842,-0.055409 C 2.119103,4.357673 2.204489,4.309941 2.225079,4.305145 2.211292,4.325743 2.183528,4.365161 2.183528,4.397484 Z M 1.414774,4.44596 v 0 c -0.099291,0 -0.072858,-0.159291 0.020779,-0.159291 0.101465,0 0.071118,0.159291 -0.020779,0.159291 z m 1.92766,0.073866 v 0 c 0,-0.014835 0.068291,-0.392921 0.077158,-0.442236 0.00176,-0.00983 0.00103,-0.024063 0.010567,-0.024063 0.105555,0 0.096815,-0.00664 0.091752,0.02011 -0.00938,0.049583 -0.023252,0.139717 -0.031732,0.17611 0.00554,-0.00406 0.0086,-0.010779 0.015787,-0.016535 0.030394,-0.024323 0.045795,-0.027331 0.08348,-0.027331 0.056528,0 0.090031,0.042449 0.090031,0.094653 0,0.013898 -0.014094,0.093425 -0.01748,0.11178 -0.00202,0.010937 -0.00394,0.016488 -0.00565,0.026677 L 3.642536,4.519826 h -0.09926 c 0,-0.018158 0.018953,-0.118394 0.023685,-0.142528 0.00402,-0.020614 0.00632,-0.030284 0.00632,-0.053685 0,-0.042307 -0.062299,-0.050142 -0.089968,-0.00226 C 3.470982,4.342676 3.4531,4.455825 3.447297,4.490802 3.444087,4.510219 3.446117,4.519826 3.437084,4.519826 Z m 1.28357,0 v 0 L 4.703516,4.077952 c 0.00163,-0.010181 2.913e-4,-0.024425 0.010205,-0.024425 0.106378,0 0.096614,-0.00654 0.091732,0.020087 C 4.796663,4.121677 4.783012,4.209968 4.773744,4.249748 4.781574,4.244508 4.788256,4.231906 4.80698,4.220646 4.831177,4.206103 4.847201,4.205882 4.873011,4.205882 c 0.055969,0 0.090032,0.040299 0.090032,0.094654 0,0.017732 -0.022291,0.142803 -0.027118,0.166772 l -0.00982,0.05252 H 4.826837 c 0,-0.014779 0.00438,-0.034748 0.00711,-0.048291 L 4.850593,4.377364 c 0.00477,-0.029 0.021032,-0.08837 -0.028362,-0.08837 -0.030126,0 -0.042016,0.010512 -0.054961,0.032764 C 4.754845,4.343104 4.737624,4.455349 4.731223,4.491152 4.727653,4.511065 4.729303,4.519829 4.720656,4.519829 Z m -4.26394,0 v 0 c 0,-0.012969 0.0348583,-0.204488 0.0372598,-0.218969 L 0.4382451,4.083542 c 0.063874,0 0.127748,0 0.191614,0 l 0.0718898,-2.677e-4 c 0.0104567,5.197e-4 0.0114646,4.095e-4 0.0102835,0.010284 l -0.0152205,0.080008 h -0.17315 c 0,0.026236 -0.0134016,0.069772 -0.0138504,0.090031 h 0.161606 l -0.0138504,0.085402 c -0.0157323,0.00367 -0.152559,0.00546 -0.163913,0 -2.6772e-4,0.011929 -0.00489,0.031669 -0.006906,0.043874 L 0.4636379,4.5198263 Z M 1.013088,4.252054 v 0 c 0,-0.016134 0.00231,-0.022528 0.00231,-0.039244 H 0.9207445 C 0.9176575,4.249944 0.8896894,4.394338 0.8818232,4.44166 0.8790122,4.458581 0.8699492,4.50614 0.8699492,4.519825 h 0.0992756 c 0.00922,-0.039583 0.0254331,-0.16385 0.0384803,-0.194669 0.017567,-0.041472 0.082299,-0.053701 0.092244,-0.00761 0.0041,0.019016 -0.00974,0.078378 -0.013969,0.102031 l -0.017488,0.100244 h 0.101583 c 2.205e-4,-0.00995 0.00346,-0.020677 0.00528,-0.031661 0.0015,-0.00914 0.00341,-0.020496 0.00528,-0.031654 0.00378,-0.022591 0.0068,-0.040913 0.011181,-0.062677 0.017165,-0.085118 0.038071,-0.178465 -0.080425,-0.189307 -0.058575,-0.00537 -0.091583,0.042606 -0.098292,0.047528 z m 2.71719,0.173126 v 0 c 0,0.036968 0.00193,0.053961 0.02822,0.080268 0.029008,0.029032 0.089976,0.030339 0.125543,0.00885 0.015969,-0.00964 0.026465,-0.02063 0.03785,-0.033716 0,0.016126 -0.00231,0.022528 -0.00231,0.039244 h 0.094653 c 0,-0.022905 0.00817,-0.055961 0.01185,-0.078181 L 4.053769,4.284653 C 4.055829,4.272708 4.058789,4.259803 4.061379,4.246094 4.065419,4.22474 4.070319,4.21281 4.0603948,4.21281 h -0.094654 l -0.024063,0.137512 c -0.00401,0.024079 -0.00717,0.046512 -0.017551,0.063244 -0.026913,0.043354 -0.085102,0.045354 -0.089819,-0.00488 -0.0011,-0.011764 0.017,-0.114228 0.020417,-0.131465 l 0.011756,-0.064409 h -0.101575 c -4.489e-4,0.019819 -0.03463,0.179819 -0.034629,0.2123702 z M 4.325884,4.392857 v 0 c 0,0.025858 0.00851,0.05974 0.022748,0.078835 C 4.396553,4.535936 4.484498,4.541487 4.549526,4.514905 4.561416,4.510065 4.591179,4.492614 4.598298,4.482889 4.595878,4.472495 4.572078,4.44433 4.564306,4.433779 4.559876,4.427779 4.557436,4.422141 4.552125,4.418259 4.538141,4.427619 4.523164,4.44596 4.489798,4.44596 c -0.105197,0 -0.076614,-0.159291 0.020776,-0.159291 0.014866,0 0.022284,0.00124 0.033969,0.00759 0.010583,0.00576 0.012472,0.011811 0.021433,0.017811 L 4.628315,4.252054 C 4.585677,4.1884 4.453791,4.185109 4.381854,4.257224 4.352019,4.287122 4.325886,4.334003 4.325886,4.3928614 Z M 4.23816,4.252054 v 0 L 4.261711,4.227125 c 0.024835,-0.022614 0.078047,-0.03037 0.080268,-0.014433 6.299e-4,0.0045 -0.01378,0.060386 -0.01378,0.083221 -0.019827,0 -0.055472,-0.011906 -0.086031,0.022457 C 4.217971,4.345583 4.214932,4.406291 4.206814,4.449244 L 4.194302,4.519827 H 4.092727 C 4.097227,4.500504 4.145822,4.237016 4.145822,4.212811 H 4.240475 Z M 0.68989,4.519826 v 0 H 0.7891652 L 0.802992,4.4436373 c 0.004071,-0.024606 0.008638,-0.053039 0.0132756,-0.076756 0.00585,-0.029905 0.0259921,-0.130354 0.0259921,-0.154071 H 0.742992 c -0.009205,0.03948 -0.0322126,0.181843 -0.0402362,0.229843 z M 5.3518,4.481125 v 0 c -0.028417,0 -0.016543,-0.043858 0.00692,-0.043858 0.024961,0 0.020024,0.043858 -0.00692,0.043858 z M 5.034627,4.45981 v 0 c 0,0.018945 0.00101,0.039016 0.019685,0.051866 0.037071,0.025504 0.123449,0.01726 0.123449,-0.065717 0,-0.060677 -0.106189,-0.073811 -0.134772,-0.014724 -0.00353,0.00732 -0.00836,0.019047 -0.00836,0.028575 z m 0.050787,0.00231 v 0 c 0,-0.024543 0.039252,-0.04111 0.039252,-0.00231 0,0.011457 -0.00821,0.018488 -0.018803,0.019417 C 5.095131,4.480164 5.085414,4.474677 5.085414,4.462117 Z M 0.752224,4.115852 v 0 c 0,0.042756 0.0223937,0.055409 0.0600236,0.055409 0.0175984,0 0.0275827,-0.0098 0.0367638,-0.018638 0.003134,-0.00302 -5.9843e-4,0.00135 0.003394,-0.00354 0.0423622,-0.05178 -0.0261811,-0.121669 -0.0814252,-0.072189 -0.005906,0.00528 -0.001551,-7.09e-5 -0.006819,0.00704 -0.005409,0.0073 -0.011937,0.021142 -0.011937,0.031913 z m 4.50172,0.293173 v 0 c 0.018764,-0.012567 0.00796,-0.01385 0.039244,-0.01385 -1.26e-4,0.00534 -0.00538,0.034913 -0.0068,0.039362 -0.00324,0.010094 -0.00312,0.00645 -0.016213,0.00687 C 5.239718,4.4423992 5.246191,4.473832 5.235474,4.519824 H 5.182387 c 0.00452,-0.019409 0.00659,-0.039969 0.010567,-0.061 0.00216,-0.011433 0.00378,-0.020417 0.00558,-0.031339 0.00148,-0.00894 0.00442,-0.020929 0.00461,-0.03 H 5.253939 Z M 4.953826,4.492119 v 0 c 0,0.010008 -0.0012,0.017118 0.00785,0.02448 0.012079,0.00983 0.052173,0.010748 0.052173,-0.026779 0,-0.036465 -0.060024,-0.030772 -0.060024,0.0023 z M 2.527516,4.388245 v 0"
			/>
		</g>
	</g>
</svg>
